# xmcd
#
# Track frame offsets:
# 150
# 12786
# 24528
# 42371
# 64722
# 85416
# 96367
# 110033
# 124935
# 136664
# 150673
# 165758
# 179295
# 196192
# 212583
# 226643
# 240613
# 255502
# 270455
# 282754
#
# Disc length: 3936 seconds
#
# Revision: 0
# Processed by: cddbd v1.4PL0 Copyright (c) Steve Scherf et al.
# Submitted via: Axialis_AX_CDPlayer 2.6
#
DISCID=fe0f5e14
DTITLE=Waylon Jennings - The Journey:  Six Strings Away [CD5 of 6)
DYEAR=1900
DGENRE=
TTITLE0=Come Early Mornin' (1985)
TTITLE1=You Can Have Her (1973)
TTITLE2=My God And I (1985)
TTITLE3=Frisco Depot (San Francisco Depot) (1972)
TTITLE4=Me And Bobby McGee (1973)
TTITLE5=Black Rose (1973)
TTITLE6=Pretend I Never Happened (1972)
TTITLE7=Delta Dawn (1972)
TTITLE8=Never Been To Spain (1972)
TTITLE9=Laid Back Country Picker (1985)
TTITLE10=Good Time Charlie's Got The Blues (1973)
TTITLE11=Willy, The Wandering Gypsy (1973)
TTITLE12=San Francisco Mabel Joy (1973)
TTITLE13=Lonesome, On'ry And Mean (1973)
TTITLE14=Freedom To Stay (1973)
TTITLE15=Lisa's Only Seven (1985)
TTITLE16=The Last One To Leave Seattle (1985)
TTITLE17=About That Woman (1985)
TTITLE18=Poor Old Ugly Gladys Jones (1968)
TTITLE19=Chet's Tune (1968)
EXTD=
EXTT0=
EXTT1=
EXTT2=
EXTT3=
EXTT4=
EXTT5=
EXTT6=
EXTT7=
EXTT8=
EXTT9=
EXTT10=
EXTT11=
EXTT12=
EXTT13=
EXTT14=
EXTT15=
EXTT16=
EXTT17=
EXTT18=
EXTT19=
PLAYORDER=
